<svg width="21" height="20" viewBox="0 0 21 20" fill="none" xmlns="http://www.w3.org/2000/svg">
<path d="M8.484 8.66107C8.5365 8.33847 8.652 8.05499 8.799 7.82037C9.114 7.27295 9.6495 6.98946 10.374 6.97968C10.8465 6.97968 11.277 7.17519 11.5815 7.45868C11.8755 7.76172 12.075 8.18207 12.075 8.60241H13.965C13.944 8.14297 13.8495 7.72262 13.65 7.3316C13.4925 6.96013 13.251 6.62777 12.936 6.35405C11.4135 5.04414 8.589 5.22988 7.2975 6.71575C5.943 8.34825 5.9115 11.2027 7.287 12.8352C8.5575 14.2917 11.34 14.497 12.852 13.1969C13.1775 12.9525 13.44 12.6495 13.65 12.2975C13.818 11.9456 13.9335 11.5742 13.944 11.1734H12.075C12.075 11.3786 12.0015 11.5644 11.907 11.7306C11.8125 11.9163 11.6865 12.0629 11.55 12.19C11.2035 12.4442 10.794 12.581 10.353 12.581C9.975 12.5713 9.66 12.5028 9.4185 12.3562C9.14629 12.2137 8.92946 11.9947 8.799 11.7306C8.274 10.8508 8.358 9.62884 8.484 8.66107ZM10.5 0C4.725 0 0 4.39896 0 9.77547C0.5565 22.7475 20.475 22.7377 21 9.77547C21 4.39896 16.275 0 10.5 0ZM10.5 17.5958C5.8695 17.5958 2.1 14.0865 2.1 9.77547C2.562 -0.596303 18.438 -0.596303 18.9 9.77547C18.9 14.0865 15.1305 17.5958 10.5 17.5958Z" fill="white"/>
</svg>
