<svg width="21" height="23" viewBox="0 0 21 23" fill="none" xmlns="http://www.w3.org/2000/svg">
<path d="M11.5794 0.00138023C12.3456 -0.001761 13.1118 0.00646626 13.8777 0.0260595L14.0814 0.0339119C14.3166 0.0428861 14.5487 0.0541039 14.829 0.0675653C15.9461 0.123654 16.7084 0.312114 17.3772 0.589193C18.0702 0.874125 18.654 1.26002 19.2377 1.88373C19.7715 2.44418 20.1846 3.12211 20.4483 3.8704C20.7076 4.58497 20.884 5.40051 20.9365 6.59408C20.9491 6.89248 20.9596 7.14151 20.968 7.39279L20.9743 7.61042C20.993 8.42841 21.001 9.24664 20.9985 10.0649L20.9995 10.9017V12.3713C21.0021 13.1899 20.9941 14.0085 20.9754 14.8268L20.9691 15.0445C20.9607 15.2957 20.9502 15.5436 20.9376 15.8432C20.8851 17.0367 20.7066 17.8511 20.4483 18.5657C20.1855 19.3148 19.7722 19.9933 19.2377 20.5535C18.7127 21.1237 18.0779 21.5651 17.3772 21.8469C16.7084 22.124 15.9461 22.3125 14.829 22.3686C14.5487 22.382 14.3166 22.3932 14.0814 22.4022L13.8777 22.4089C13.1118 22.4289 12.3456 22.4375 11.5794 22.4347L10.7962 22.4359H9.42177C8.65559 22.4386 7.8894 22.43 7.12344 22.4101L6.91975 22.4033C6.6705 22.3937 6.42131 22.3825 6.17219 22.3697C5.05505 22.3136 4.29279 22.1229 3.62292 21.8469C2.92227 21.5657 2.28764 21.1243 1.76347 20.5535C1.22909 19.9929 0.815599 19.3146 0.551828 18.5657C0.292491 17.8511 0.1161 17.0367 0.0636025 15.8432C0.0519092 15.577 0.0414096 15.3107 0.0321042 15.0445L0.0268546 14.8268C0.00749733 14.0085 -0.00125316 13.1899 0.00060582 12.3713V10.0649C-0.00232454 9.24664 0.00537588 8.42841 0.0237047 7.61042L0.0310543 7.39279C0.0394539 7.14151 0.0499533 6.89248 0.0625527 6.59408C0.11505 5.39939 0.291441 4.5861 0.550777 3.8704C0.814705 3.12175 1.22901 2.44399 1.76452 1.88485C2.28833 1.31358 2.92257 0.871402 3.62292 0.589193C4.29279 0.312114 5.054 0.123654 6.17219 0.0675653L6.91975 0.0339119L7.12344 0.0283031C7.88904 0.00763189 8.65488 -0.00171728 9.42072 0.000258534L11.5794 0.00138023ZM10.5001 5.61028C9.80449 5.59977 9.11388 5.73707 8.4684 6.0142C7.82291 6.29133 7.23541 6.70276 6.74005 7.22458C6.24468 7.74641 5.85133 8.36822 5.58284 9.05388C5.31436 9.73954 5.1761 10.4754 5.1761 11.2186C5.1761 11.9619 5.31436 12.6977 5.58284 13.3834C5.85133 14.069 6.24468 14.6908 6.74005 15.2127C7.23541 15.7345 7.82291 16.1459 8.4684 16.423C9.11388 16.7002 9.80449 16.8375 10.5001 16.827C11.8924 16.827 13.2277 16.236 14.2122 15.1842C15.1967 14.1323 15.7498 12.7056 15.7498 11.2181C15.7498 9.73049 15.1967 8.30384 14.2122 7.25197C13.2277 6.2001 11.8924 5.61028 10.5001 5.61028ZM10.5001 7.85384C10.9185 7.8456 11.3342 7.92653 11.723 8.09189C12.1118 8.25725 12.4659 8.50374 12.7646 8.81694C13.0632 9.13014 13.3005 9.50379 13.4624 9.91606C13.6244 10.3283 13.7079 10.7709 13.7079 11.2181C13.708 11.6652 13.6247 12.1078 13.4628 12.5201C13.301 12.9325 13.0639 13.3062 12.7653 13.6195C12.4668 13.9328 12.1128 14.1794 11.724 14.3449C11.3353 14.5104 10.9195 14.5915 10.5011 14.5834C9.66573 14.5834 8.86455 14.2288 8.27385 13.5977C7.68314 12.9666 7.35128 12.1106 7.35128 11.2181C7.35128 10.3255 7.68314 9.46953 8.27385 8.8384C8.86455 8.20728 9.66573 7.85272 10.5011 7.85272L10.5001 7.85384ZM16.0123 3.92761C15.6736 3.9421 15.3532 4.09605 15.1184 4.35722C14.8835 4.61839 14.7523 4.96653 14.7523 5.32871C14.7523 5.6909 14.8835 6.03903 15.1184 6.30021C15.3532 6.56138 15.6736 6.71533 16.0123 6.72982C16.3604 6.72982 16.6942 6.58208 16.9403 6.31912C17.1864 6.05615 17.3247 5.69949 17.3247 5.32759C17.3247 4.9557 17.1864 4.59904 16.9403 4.33607C16.6942 4.0731 16.3604 3.92537 16.0123 3.92537V3.92761Z" fill="white"/>
</svg>
