<svg width="56" height="56" viewBox="0 0 56 56" fill="none" xmlns="http://www.w3.org/2000/svg">
<g clip-path="url(#clip0_52_2847)">
<path fill-rule="evenodd" clip-rule="evenodd" d="M28 9.33398C29.995 9.33398 32.0414 9.38532 34.0247 9.46932L36.3674 9.58132L38.6097 9.71432L40.7097 9.85665L42.6277 10.006C44.7091 10.1653 46.6677 11.0535 48.1589 12.5144C49.6501 13.9753 50.5783 15.9152 50.7804 17.993L50.8737 18.9846L51.0487 21.108C51.212 23.3083 51.3334 25.707 51.3334 28.0007C51.3334 30.2943 51.212 32.693 51.0487 34.8933L50.8737 37.0167C50.8433 37.3573 50.813 37.6863 50.7804 38.0083C50.5783 40.0864 49.6497 42.0267 48.158 43.4876C46.6664 44.9485 44.7072 45.8365 42.6254 45.9953L40.712 46.1423L38.612 46.287L36.3674 46.42L34.0247 46.532C32.0176 46.6192 30.009 46.6643 28 46.6673C25.9911 46.6643 23.9824 46.6192 21.9754 46.532L19.6327 46.42L17.3904 46.287L15.2904 46.1423L13.3724 45.9953C11.2909 45.836 9.33231 44.9478 7.84112 43.4869C6.34994 42.026 5.42169 40.0861 5.21969 38.0083L5.12635 37.0167L4.95135 34.8933C4.77294 32.6 4.67799 30.3009 4.66669 28.0007C4.66669 25.707 4.78802 23.3083 4.95135 21.108L5.12635 18.9846C5.15669 18.644 5.18702 18.315 5.21969 17.993C5.42162 15.9156 6.34953 13.976 7.84023 12.5151C9.33094 11.0543 11.289 10.1658 13.37 10.006L15.2857 9.85665L17.3857 9.71432L19.6304 9.58132L21.973 9.46932C23.9809 9.38213 25.9903 9.33701 28 9.33398ZM23.3334 22.3423V33.659C23.3334 34.737 24.5 35.409 25.4334 34.8723L35.2334 29.214C35.4466 29.0912 35.6237 28.9144 35.7469 28.7014C35.8701 28.4884 35.9349 28.2467 35.9349 28.0007C35.9349 27.7546 35.8701 27.5129 35.7469 27.2999C35.6237 27.0869 35.4466 26.9101 35.2334 26.7873L25.4334 21.1313C25.2205 21.0084 24.979 20.9437 24.7331 20.9438C24.4873 20.9438 24.2458 21.0086 24.033 21.1315C23.8201 21.2545 23.6434 21.4314 23.5206 21.6443C23.3978 21.8573 23.3332 22.0988 23.3334 22.3447V22.3423Z" fill="black"/>
</g>
<defs>
<clipPath id="clip0_52_2847">
<rect width="56" height="56" fill="white"/>
</clipPath>
</defs>
</svg>
