<svg width="49" height="48" viewBox="0 0 49 48" fill="none" xmlns="http://www.w3.org/2000/svg">
<path d="M24.502 4C35.7781 4 44.9187 12.954 44.9187 24C44.9187 35.046 35.7781 44 24.502 44C20.8939 44.0057 17.3494 43.0703 14.2324 41.29L4.09352 44L6.85386 34.064C5.03492 31.0097 4.07933 27.536 4.08536 24C4.08536 12.954 13.2259 4 24.502 4ZM17.544 14.6L17.1357 14.616C16.8713 14.6318 16.613 14.6998 16.3762 14.816C16.1547 14.9389 15.9525 15.0924 15.7759 15.272C15.5309 15.498 15.3921 15.694 15.2431 15.884C14.4879 16.8458 14.0813 18.0266 14.0875 19.24C14.0916 20.22 14.3529 21.174 14.7612 22.066C15.5963 23.87 16.9703 25.78 18.7833 27.55C19.2202 27.976 19.649 28.404 20.1104 28.802C22.3632 30.7449 25.0477 32.1461 27.9504 32.894L29.1101 33.068C29.4878 33.088 29.8655 33.06 30.2452 33.042C30.8398 33.0119 31.4204 32.8542 31.9459 32.58C32.2133 32.4451 32.4742 32.2983 32.7279 32.14C32.7279 32.14 32.8157 32.084 32.9831 31.96C33.2587 31.76 33.4282 31.618 33.6569 31.384C33.8263 31.212 33.9733 31.01 34.0856 30.78C34.2449 30.454 34.4041 29.832 34.4694 29.314C34.5184 28.918 34.5041 28.702 34.498 28.568C34.4899 28.354 34.3081 28.132 34.1101 28.038L32.9219 27.516C32.9219 27.516 31.1456 26.758 30.0594 26.274C29.9458 26.2254 29.824 26.1976 29.7001 26.192C29.5604 26.1779 29.4193 26.1933 29.2862 26.2372C29.153 26.281 29.031 26.3522 28.9284 26.446C28.9181 26.442 28.7814 26.556 27.3052 28.308C27.2205 28.4195 27.1038 28.5038 26.97 28.5501C26.8362 28.5964 26.6913 28.6026 26.5539 28.568C26.4209 28.5331 26.2906 28.489 26.1639 28.436C25.9108 28.332 25.823 28.292 25.6494 28.22C24.4777 27.7191 23.3928 27.0423 22.4338 26.214C22.1766 25.994 21.9377 25.754 21.6927 25.522C20.8895 24.7685 20.1895 23.916 19.6102 22.986L19.4897 22.796C19.4032 22.6683 19.3333 22.5306 19.2815 22.386C19.2039 22.092 19.406 21.856 19.406 21.856C19.406 21.856 19.9021 21.324 20.1329 21.036C20.3574 20.756 20.5473 20.484 20.6698 20.29C20.9107 19.91 20.9863 19.52 20.8597 19.218C20.288 17.85 19.6959 16.488 19.0875 15.136C18.9671 14.868 18.6098 14.676 18.2851 14.638C18.1749 14.626 18.0646 14.614 17.9544 14.606C17.6802 14.5927 17.4055 14.5953 17.1316 14.614L17.542 14.598L17.544 14.6Z" fill="black"/>
</svg>
