<svg width="26" height="25" viewBox="0 0 26 25" fill="none" xmlns="http://www.w3.org/2000/svg">
<path d="M13.0011 2.08398C18.9843 2.08398 23.8344 6.74753 23.8344 12.5007C23.8344 18.2538 18.9843 22.9173 13.0011 22.9173C11.0866 22.9203 9.2058 22.4331 7.55192 21.5059L2.17209 22.9173L3.63676 17.7423C2.67161 16.1516 2.16456 14.3423 2.16775 12.5007C2.16775 6.74753 7.01784 2.08398 13.0011 2.08398ZM9.30909 7.60482L9.09242 7.61315C8.95215 7.62136 8.81507 7.6568 8.68942 7.71732C8.5719 7.78131 8.46463 7.8613 8.37092 7.95482C8.24092 8.07253 8.16726 8.17461 8.08817 8.27357C7.68747 8.77451 7.47173 9.38952 7.47501 10.0215C7.47717 10.5319 7.61584 11.0288 7.83251 11.4934C8.27559 12.4329 9.00467 13.4277 9.96667 14.3496C10.1985 14.5715 10.426 14.7944 10.6708 15.0017C11.8662 16.0136 13.2906 16.7434 14.8308 17.1329L15.4462 17.2236C15.6466 17.234 15.847 17.2194 16.0485 17.21C16.364 17.1944 16.6721 17.1122 16.9509 16.9694C17.0928 16.8991 17.2312 16.8227 17.3658 16.7402C17.3658 16.7402 17.4124 16.7111 17.5013 16.6465C17.6475 16.5423 17.7374 16.4684 17.8588 16.3465C17.9487 16.2569 18.0267 16.1517 18.0863 16.0319C18.1708 15.8621 18.2553 15.5381 18.2899 15.2684C18.3159 15.0621 18.3083 14.9496 18.3051 14.8798C18.3008 14.7684 18.2043 14.6527 18.0993 14.6038L17.4688 14.3319C17.4688 14.3319 16.5263 13.9371 15.9499 13.685C15.8896 13.6597 15.825 13.6452 15.7593 13.6423C15.6851 13.635 15.6102 13.643 15.5396 13.6658C15.469 13.6887 15.4042 13.7257 15.3498 13.7746C15.3443 13.7725 15.2718 13.8319 14.4885 14.7444C14.4435 14.8025 14.3816 14.8464 14.3106 14.8705C14.2396 14.8946 14.1628 14.8979 14.0898 14.8798C14.0193 14.8616 13.9501 14.8386 13.8829 14.8111C13.7486 14.7569 13.702 14.7361 13.6099 14.6986C12.9882 14.4377 12.4125 14.0852 11.9037 13.6538C11.7672 13.5392 11.6404 13.4142 11.5104 13.2934C11.0842 12.9009 10.7128 12.4569 10.4054 11.9725L10.3415 11.8736C10.2956 11.8071 10.2585 11.7353 10.231 11.66C10.1898 11.5069 10.2971 11.384 10.2971 11.384C10.2971 11.384 10.5603 11.1069 10.6828 10.9569C10.8019 10.8111 10.9027 10.6694 10.9677 10.5684C11.0955 10.3704 11.1356 10.1673 11.0684 10.01C10.7651 9.29753 10.4509 8.58815 10.1281 7.88398C10.0642 7.7444 9.87459 7.6444 9.70234 7.62461C9.64384 7.61836 9.58534 7.61211 9.52684 7.60794C9.38135 7.60099 9.23557 7.60238 9.09025 7.61211L9.30801 7.60378L9.30909 7.60482Z" fill="white"/>
</svg>
