<svg width="20" height="21" viewBox="0 0 20 21" fill="none" xmlns="http://www.w3.org/2000/svg">
<path d="M9.88 7.14331C11.16 7.20334 11.49 8.29385 11.51 8.80408H13.3C13.22 6.82316 11.81 5.6126 9.85 5.6126C7.64 5.6126 6 7.00325 6 10.1447C6 12.0856 6.93 14.3867 9.84 14.3867C12.06 14.3867 13.25 12.7359 13.28 11.4353H11.49C11.46 12.0256 11.04 12.8159 9.86 12.876C8.55 12.836 8 11.8155 8 10.1447C8 7.25336 9.28 7.16332 9.88 7.14331ZM10 0C4.48 0 0 4.48208 0 10.0046C0 15.5272 4.48 20.0093 10 20.0093C15.52 20.0093 20 15.5272 20 10.0046C20 4.48208 15.52 0 10 0ZM10 18.0083C5.59 18.0083 2 14.4167 2 10.0046C2 5.59259 5.59 2.00093 10 2.00093C14.41 2.00093 18 5.59259 18 10.0046C18 14.4167 14.41 18.0083 10 18.0083Z" fill="white"/>
</svg>
