<svg width="43" height="43" viewBox="0 0 43 43" fill="none" xmlns="http://www.w3.org/2000/svg">
<path d="M23.7102 0.00264526C25.2791 -0.00337501 26.8479 0.0123928 28.4163 0.0499438L28.8334 0.0649932C29.315 0.0821927 29.7901 0.103692 30.3641 0.129491C32.6516 0.236987 34.2124 0.598175 35.5819 1.12921C37.0008 1.67529 38.1962 2.41486 39.3915 3.61022C40.4845 4.68434 41.3303 5.98363 41.8703 7.41774C42.4014 8.78725 42.7626 10.3502 42.87 12.6378C42.8958 13.2096 42.9173 13.6869 42.9345 14.1685L42.9474 14.5856C42.9856 16.1533 43.0021 17.7215 42.9969 19.2896L42.999 20.8935V23.7099C43.0043 25.2788 42.9879 26.8477 42.9496 28.4161L42.9367 28.8332C42.9195 29.3148 42.898 29.7899 42.8722 30.3639C42.7647 32.6514 42.3992 34.2123 41.8703 35.5818C41.3321 37.0174 40.486 38.3178 39.3915 39.3915C38.3165 40.4843 37.0166 41.3302 35.5819 41.8703C34.2124 42.4014 32.6516 42.7625 30.3641 42.87C29.7901 42.8958 29.315 42.9173 28.8334 42.9345L28.4163 42.9474C26.8479 42.9857 25.2791 43.0021 23.7102 42.9969L22.1064 42.999H19.2922C17.7233 43.0043 16.1545 42.9878 14.5861 42.9496L14.169 42.9367C13.6587 42.9182 13.1484 42.8967 12.6383 42.8722C10.3508 42.7647 8.78999 42.3992 7.41836 41.8703C5.9837 41.3314 4.68421 40.4854 3.6109 39.3915C2.51671 38.3171 1.67004 37.017 1.12993 35.5818C0.59891 34.2123 0.237728 32.6514 0.130234 30.3639C0.10629 29.8538 0.0847912 29.3435 0.0657371 28.8332L0.0549879 28.4161C0.0153517 26.8477 -0.00256599 25.2788 0.00124049 23.7099V19.2896C-0.00475978 17.7215 0.0110078 16.1533 0.0485382 14.5856L0.0635874 14.1685C0.0807865 13.6869 0.102285 13.2096 0.128084 12.6378C0.235578 10.3481 0.59676 8.7894 1.12778 7.41774C1.66821 5.98292 2.51653 4.68399 3.61306 3.61237C4.68562 2.51753 5.9843 1.67007 7.41836 1.12921C8.78999 0.598175 10.3487 0.236987 12.6383 0.129491L14.169 0.0649932L14.5861 0.0542439C16.1538 0.0146268 17.7219 -0.00329122 19.2901 0.000495489L23.7102 0.00264526ZM21.5001 10.7523C20.0758 10.7321 18.6618 10.9953 17.3401 11.5264C16.0183 12.0575 14.8154 12.846 13.801 13.8461C12.7867 14.8462 11.9813 16.038 11.4315 17.352C10.8818 18.6661 10.5987 20.0764 10.5987 21.5008C10.5987 22.9253 10.8818 24.3355 11.4315 25.6496C11.9813 26.9637 12.7867 28.1554 13.801 29.1555C14.8154 30.1556 16.0183 30.9442 17.3401 31.4753C18.6618 32.0064 20.0758 32.2695 21.5001 32.2494C24.3511 32.2494 27.0852 31.1169 29.1011 29.1009C31.1171 27.085 32.2496 24.3507 32.2496 21.4998C32.2496 18.6488 31.1171 15.9146 29.1011 13.8986C27.0852 11.8827 24.3511 10.7523 21.5001 10.7523ZM21.5001 15.0521C22.3569 15.0363 23.2082 15.1914 24.0043 15.5084C24.8005 15.8253 25.5255 16.2977 26.137 16.8979C26.7485 17.4982 27.2343 18.2143 27.5659 19.0044C27.8976 19.7946 28.0685 20.6428 28.0686 21.4997C28.0688 22.3567 27.8982 23.205 27.5668 23.9952C27.2354 24.7855 26.7498 25.5017 26.1385 26.1022C25.5272 26.7027 24.8023 27.1753 24.0063 27.4925C23.2103 27.8097 22.359 27.965 21.5023 27.9495C19.7917 27.9495 18.1512 27.27 16.9417 26.0604C15.7321 24.8509 15.0526 23.2104 15.0526 21.4998C15.0526 19.7892 15.7321 18.1486 16.9417 16.9391C18.1512 15.7295 19.7917 15.05 21.5023 15.05L21.5001 15.0521ZM32.7871 7.52739C32.0935 7.55515 31.4376 7.8502 30.9567 8.35075C30.4757 8.8513 30.2072 9.51851 30.2072 10.2126C30.2072 10.9068 30.4757 11.574 30.9567 12.0745C31.4376 12.5751 32.0935 12.8701 32.7871 12.8979C33.4998 12.8979 34.1833 12.6148 34.6873 12.1108C35.1913 11.6068 35.4744 10.9232 35.4744 10.2105C35.4744 9.49775 35.1913 8.8142 34.6873 8.31021C34.1833 7.80623 33.4998 7.52309 32.7871 7.52309V7.52739Z" fill="black"/>
</svg>
